<svg width="48" height="48" viewBox="0 0 48 48" fill="none" xmlns="http://www.w3.org/2000/svg">
<path d="M30.4088 21.87C30.0577 21.6753 29.7652 21.3903 29.5614 21.0444C29.3577 20.6986 29.2501 20.3045 29.25 19.9031V7.63875C29.25 7.26166 29.3447 6.8906 29.5255 6.55968C29.7063 6.22876 29.9674 5.94859 30.2848 5.74492C30.6021 5.54125 30.9656 5.4206 31.3417 5.39408C31.7179 5.36756 32.0947 5.436 32.4375 5.59312C35.9583 7.21343 38.9415 9.80779 41.0348 13.0696C43.128 16.3314 44.2437 20.1243 44.25 24C44.25 24.6319 44.22 25.2675 44.1619 25.8938C44.127 26.2659 44.0001 26.6234 43.7924 26.9342C43.5847 27.2449 43.3029 27.499 42.9725 27.6736C42.642 27.8481 42.2732 27.9376 41.8995 27.9339C41.5258 27.9302 41.1589 27.8335 40.8319 27.6525L30.4088 21.87ZM33.75 11.6363V18.5737L39.5981 21.8175C39.0266 17.7993 36.933 14.1544 33.75 11.6363ZM24 3.75C24.5967 3.75 25.169 3.98705 25.591 4.40901C26.0129 4.83097 26.25 5.40326 26.25 6V22.7869L40.6537 31.1756C40.9099 31.3248 41.134 31.5231 41.3133 31.7592C41.4925 31.9952 41.6234 32.2644 41.6983 32.5512C41.7732 32.838 41.7907 33.1367 41.7498 33.4303C41.7089 33.7239 41.6104 34.0065 41.46 34.2619C39.6621 37.3204 37.0923 39.8529 34.0077 41.6057C30.9232 43.3586 27.4323 44.2704 23.8846 44.2497C20.3369 44.229 16.8568 43.2766 13.793 41.4878C10.7291 39.6991 8.18899 37.1368 6.42692 34.0575C4.66485 30.9782 3.7427 27.4901 3.75281 23.9423C3.76292 20.3945 4.70493 16.9117 6.48452 13.8425C8.26411 10.7733 10.8188 8.22553 13.8928 6.45428C16.9668 4.68303 20.4522 3.75048 24 3.75ZM24 39.75C26.3598 39.7436 28.6884 39.21 30.8155 38.1881C32.9427 37.1662 34.8146 35.682 36.2944 33.8438L22.875 26.0231C22.5336 25.826 22.2499 25.5426 22.0525 25.2014C21.855 24.8601 21.7507 24.473 21.75 24.0788V8.40937C17.8058 8.97477 14.2224 11.0141 11.722 14.1164C9.22162 17.2188 7.98999 21.1535 8.27531 25.1278C8.56063 29.1021 10.3417 32.8206 13.2596 35.5339C16.1776 38.2473 20.0155 39.7538 24 39.75Z" fill="white"/>
</svg>
